<svg width="7" height="6" viewBox="0 0 7 6" fill="none" xmlns="http://www.w3.org/2000/svg">
<path d="M6.37557 0.681823C6.29513 0.565367 6.18632 0.5 6.07289 0.5C5.95947 0.5 5.85066 0.565367 5.77022 0.681823L3.49567 3.99324L1.22498 0.681823C1.14327 0.570883 1.03518 0.510471 0.923494 0.513319C0.811805 0.516167 0.705237 0.582053 0.626249 0.697092C0.547261 0.81213 0.502022 0.967336 0.500066 1.13C0.49811 1.29266 0.539591 1.45008 0.615765 1.56908L3.19085 5.31818C3.27129 5.43463 3.3801 5.5 3.49352 5.5C3.60694 5.5 3.71575 5.43463 3.79619 5.31818L6.37085 1.56908C6.41137 1.51136 6.44364 1.44254 6.46581 1.36657C6.48797 1.29059 6.49959 1.20898 6.49999 1.12644C6.50039 1.0439 6.48956 0.962055 6.46813 0.885637C6.4467 0.809219 6.4151 0.739736 6.37514 0.681198L6.37557 0.681823Z" fill="black"/>
</svg>
